<?xml version="1.0" encoding="utf-8"?>
<!-- Designed by Vexels.com - 2019 All Rights Reserved - https://vexels.com/terms-and-conditions/  -->
<svg version="1.1" id="Capa_1" xmlns="http://www.w3.org/2000/svg" xmlns:xlink="http://www.w3.org/1999/xlink" x="0px" y="0px"
	 viewBox="0 0 1200 1200" enable-background="new 0 0 1200 1200" xml:space="preserve">
<g>
	<g>
		<path fill="#99D6E0" d="M1066.976,707.852c5.891,5.887,13.612,8.832,21.328,8.832s15.438-2.945,21.328-8.832
			c11.777-11.782,11.777-30.875,0-42.657l-35.034-35.034h45.241c16.659,0,30.161-13.502,30.161-30.161s-13.502-30.161-30.161-30.161
			h-45.247l35.04-35.042c11.777-11.778,11.777-30.875-0.004-42.653c-11.774-11.774-30.871-11.778-42.653,0.004l-77.687,77.691
			h-27.107l35.04-35.042c11.778-11.778,11.778-30.875-0.004-42.653c-11.774-11.774-30.871-11.778-42.653,0.004l-77.687,77.691
			h-159.45c-2.947-11.471-7.543-22.284-13.507-32.187l94.696-94.696h107.824c16.659,0,30.161-13.502,30.161-30.161
			c0-16.659-13.502-30.161-30.161-30.161h-47.503l19.165-19.165h107.824c16.659,0,30.161-13.502,30.161-30.161
			c0-16.659-13.502-30.161-30.161-30.161h-47.503l50.767-50.767c11.778-11.782,11.778-30.875,0-42.657
			c-11.782-11.774-30.875-11.774-42.657,0l-52.813,52.813v-51.595c0-16.659-13.502-30.161-30.161-30.161
			c-16.659,0-30.161,13.502-30.161,30.161V322.86l-19.165,19.165v-51.591c0-16.659-13.502-30.161-30.161-30.161
			s-30.161,13.502-30.161,30.161v111.913l-92.942,92.942c-9.528-5.57-19.865-9.902-30.811-12.715V341.671l77.691-77.688
			c11.781-11.778,11.781-30.875,0.004-42.653c-11.778-11.782-30.875-11.778-42.653-0.004l-35.042,35.041V229.26l77.691-77.688
			c11.781-11.778,11.781-30.875,0.004-42.653s-30.875-11.782-42.653-0.004l-35.042,35.041V80.161C630.161,63.502,616.659,50,600,50
			s-30.161,13.502-30.161,30.161v63.789l-35.034-35.034c-11.781-11.774-30.875-11.774-42.657,0
			c-11.778,11.782-11.778,30.875,0,42.657l77.691,77.691v27.097l-35.034-35.034c-11.781-11.774-30.875-11.774-42.657,0
			c-11.778,11.781-11.778,30.875,0,42.657l77.691,77.691v140.898c-12.28,3.156-23.799,8.216-34.26,14.807l-95.529-95.529V290.433
			c0-16.659-13.502-30.161-30.161-30.161s-30.161,13.502-30.161,30.161v51.096l-19.165-19.165V210.943
			c0-16.659-13.502-30.161-30.161-30.161s-30.161,13.502-30.161,30.161v51.1l-52.318-52.318c-11.782-11.774-30.875-11.774-42.657,0
			c-11.778,11.782-11.778,30.875,0,42.657l50.766,50.767h-47.998c-16.659,0-30.161,13.502-30.161,30.161
			c0,16.659,13.502,30.161,30.161,30.161h108.319l19.165,19.165h-47.998c-16.659,0-30.161,13.502-30.161,30.161
			c0,16.659,13.502,30.161,30.161,30.161h108.319l98.215,98.215c-4.978,8.93-8.877,18.539-11.481,28.668H327.788l-77.695-77.695
			c-11.782-11.774-30.875-11.774-42.657,0c-11.778,11.782-11.778,30.875,0,42.657l35.038,35.038h-27.097l-77.695-77.695
			c-11.782-11.774-30.875-11.774-42.657,0c-11.778,11.782-11.778,30.875,0,42.657l35.038,35.038H80.161
			C63.502,569.839,50,583.341,50,600s13.502,30.161,30.161,30.161h49.904l-35.036,35.034c-11.782,11.778-11.782,30.875-0.004,42.653
			c5.891,5.891,13.608,8.836,21.328,8.836c7.717,0,15.438-2.945,21.325-8.832l77.695-77.691h27.103l-35.036,35.034
			c-11.782,11.778-11.782,30.875-0.004,42.653c5.891,5.891,13.608,8.836,21.328,8.836c7.717,0,15.438-2.945,21.325-8.832
			l77.695-77.691h154.791c2.311,8.99,5.655,17.564,9.853,25.627l-95.036,95.036h-109.87c-16.659,0-30.161,13.502-30.161,30.161
			s13.502,30.161,30.161,30.161h49.549l-19.165,19.165h-109.87c-16.659,0-30.161,13.502-30.161,30.161s13.502,30.161,30.161,30.161
			h49.549l-56.339,56.339c-11.778,11.781-11.778,30.875,0,42.657c5.891,5.887,13.612,8.832,21.328,8.832
			c7.717,0,15.438-2.945,21.328-8.832l56.339-56.339v49.549c0,16.659,13.502,30.161,30.161,30.161s30.161-13.502,30.161-30.161
			v-109.87l19.165-19.165v49.549c0,16.659,13.502,30.161,30.161,30.161s30.161-13.502,30.161-30.161V793.48l92.687-92.687
			c11.198,7.497,23.702,13.187,37.102,16.631v140.902l-77.691,77.695c-11.778,11.778-11.778,30.875,0.004,42.653
			c5.887,5.887,13.608,8.832,21.325,8.832c7.717,0,15.438-2.945,21.328-8.836l35.034-35.036v27.103l-77.691,77.695
			c-11.778,11.778-11.778,30.875,0.004,42.653c5.887,5.887,13.608,8.832,21.325,8.832c7.717,0,15.438-2.945,21.328-8.836
			l35.034-35.036v63.794c0,16.659,13.502,30.161,30.161,30.161s30.161-13.502,30.161-30.161v-63.793l35.038,35.038
			c5.891,5.887,13.612,8.832,21.328,8.832c7.717,0,15.438-2.945,21.328-8.832c11.778-11.781,11.778-30.875,0-42.657l-77.695-77.695
			v-27.097l35.038,35.038c5.891,5.887,13.612,8.832,21.328,8.832c7.717,0,15.438-2.945,21.328-8.832
			c11.778-11.781,11.778-30.875,0-42.657l-77.695-77.695V717.424c10.129-2.603,19.738-6.502,28.668-11.481l87.042,87.042V903.35
			c0,16.659,13.502,30.161,30.161,30.161s30.161-13.502,30.161-30.161v-50.044l19.165,19.165v110.365
			c0,16.659,13.502,30.161,30.161,30.161s30.161-13.502,30.161-30.161v-50.044l60.855,60.855c5.891,5.887,13.612,8.832,21.328,8.832
			c7.717,0,15.438-2.945,21.328-8.832c11.778-11.782,11.778-30.875,0-42.657L928.83,890.63h49.054
			c16.659,0,30.161-13.502,30.161-30.161s-13.502-30.161-30.161-30.161H868.508l-19.165-19.165h49.054
			c16.659,0,30.161-13.502,30.161-30.161s-13.502-30.161-30.161-30.161H789.023L702.62,664.42
			c6.592-10.461,11.651-21.979,14.807-34.26h159.446l77.691,77.691c5.891,5.887,13.612,8.832,21.328,8.832
			c7.717,0,15.438-2.945,21.328-8.832c11.778-11.782,11.778-30.875,0-42.657l-35.034-35.034h27.097L1066.976,707.852z
			 M480.143,612.759h-163.25c-0.361,0.492-0.724,0.985-1.168,1.429l-78.375,78.375c-2.356,2.356-5.443,3.534-8.53,3.534
			c-3.087,0-6.174-1.178-8.53-3.534c-4.713-4.709-4.713-12.351,0-17.06l62.744-62.744h-78.206l-74.84,74.84
			c-2.356,2.356-5.443,3.534-8.53,3.534s-6.174-1.178-8.53-3.534c-4.713-4.709-4.713-12.351,0-17.06l57.78-57.78h-85.73
			c-6.664,0-12.064-5.4-12.064-12.064c0-6.664,5.4-12.064,12.064-12.064h89.08l-61.13-61.13c-4.713-4.709-4.713-12.351,0-17.06
			c4.713-4.713,12.347-4.713,17.06,0l78.19,78.19h73.242l-61.13-61.13c-4.713-4.709-4.713-12.351,0-17.06
			c4.713-4.713,12.347-4.713,17.06,0l78.19,78.19h164.603c0.144,0,0.279,0.037,0.421,0.042c-0.349,3.73-0.548,7.504-0.548,11.326
			c0,4.293,0.236,8.529,0.675,12.706C480.506,612.713,480.331,612.759,480.143,612.759z M509.746,252.481
			c-4.713-4.709-4.713-12.351,0-17.06c4.713-4.713,12.347-4.713,17.06,0l61.13,61.13V223.31l-78.19-78.19
			c-4.713-4.709-4.713-12.351,0-17.06c4.713-4.713,12.347-4.713,17.06,0l61.13,61.13v-89.08c0-6.664,5.4-12.064,12.064-12.064
			s12.064,5.4,12.064,12.064v85.73l57.78-57.78c4.713-4.713,12.347-4.713,17.06,0c4.713,4.709,4.713,12.351,0,17.06l-74.84,74.84
			v78.202l62.744-62.741c4.713-4.713,12.347-4.713,17.06,0c4.713,4.713,4.713,12.351,0,17.06l-78.378,78.375
			c-0.444,0.444-0.935,0.805-1.426,1.165v148.597c-3.967-0.396-7.991-0.604-12.062-0.604c-4.073,0-8.098,0.208-12.066,0.604V330.671
			L509.746,252.481z M399.259,421.364c-0.604,0.093-1.209,0.185-1.838,0.185h-110.84c-6.664,0-12.064-5.4-12.064-12.064
			c0-6.664,5.4-12.064,12.064-12.064h88.734l-55.295-55.295H214.175c-6.664,0-12.064-5.4-12.064-12.064
			c0-6.664,5.4-12.064,12.064-12.064h81.717l-60.62-60.62c-4.713-4.709-4.713-12.351,0-17.06c4.713-4.713,12.347-4.713,17.06,0
			l62.988,62.988v-86.453c0-6.664,5.4-12.064,12.064-12.064s12.064,5.4,12.064,12.064v110.581l51.788,51.788V292.77
			c0-6.664,5.4-12.064,12.064-12.064s12.064,5.4,12.064,12.064v110.581L521.4,509.387c-6.087,5.285-11.637,11.165-16.556,17.563
			L399.259,421.364z M419.386,789.682v110.581c0,6.664-5.4,12.064-12.064,12.064s-12.064-5.4-12.064-12.064v-86.453l-51.788,51.788
			V976.18c0,6.664-5.4,12.064-12.064,12.064s-12.064-5.4-12.064-12.064v-86.453l-62.988,62.988c-2.356,2.356-5.443,3.534-8.53,3.534
			c-3.087,0-6.174-1.178-8.53-3.534c-4.713-4.709-4.713-12.351,0-17.06l60.62-60.62h-81.717c-6.664,0-12.064-5.4-12.064-12.064
			c0-6.664,5.4-12.064,12.064-12.064h105.845l55.295-55.294h-88.734c-6.664,0-12.064-5.4-12.064-12.064
			c0-6.664,5.4-12.064,12.064-12.064h110.84c0.629,0,1.234,0.092,1.838,0.185l100.285-100.286
			c4.811,6.489,10.262,12.471,16.258,17.861L419.386,789.682z M691.063,949.903c4.713,4.709,4.713,12.351,0,17.06
			c-2.356,2.356-5.443,3.534-8.53,3.534s-6.174-1.178-8.53-3.534l-61.13-61.13v73.246l78.19,78.19c4.713,4.709,4.713,12.351,0,17.06
			c-2.356,2.356-5.443,3.534-8.53,3.534s-6.174-1.178-8.53-3.534l-61.13-61.13v89.076c0,6.664-5.4,12.064-12.064,12.064
			c-6.664,0-12.064-5.4-12.064-12.064v-85.727l-57.784,57.781c-2.356,2.356-5.443,3.534-8.53,3.534c-3.087,0-6.173-1.178-8.53-3.534
			c-4.713-4.713-4.713-12.351,0-17.06l74.844-74.84v-78.21L526,966.963c-2.356,2.356-5.443,3.534-8.53,3.534
			c-3.087,0-6.173-1.178-8.53-3.534c-4.713-4.709-4.713-12.351,0-17.06l78.375-78.375c0.445-0.445,0.938-0.807,1.43-1.168V719.441
			c3.708,0.345,7.459,0.542,11.257,0.542c4.349,0,8.642-0.244,12.871-0.696v152.425L691.063,949.903z M600.002,691.026
			c-52.005,0-94.164-42.158-94.164-94.164c0-10.753,1.89-21.042,5.209-30.668c12.734,36.926,47.702,63.495,88.954,63.495
			s76.22-26.569,88.954-63.495c3.318,9.625,5.209,19.915,5.209,30.668C694.166,648.868,652.007,691.026,600.002,691.026z
			 M781.687,771.669c0.604-0.093,1.209-0.185,1.838-0.185h110.836c6.664,0,12.064,5.4,12.064,12.064
			c0,6.664-5.4,12.064-12.064,12.064h-88.73l55.295,55.294H966.77c6.664,0,12.064,5.4,12.064,12.064
			c0,6.664-5.4,12.064-12.064,12.064h-81.717l60.62,60.62c4.713,4.709,4.713,12.351,0,17.06c-2.356,2.356-5.443,3.534-8.53,3.534
			c-3.087,0-6.173-1.178-8.53-3.534l-62.988-62.988v86.453c0,6.664-5.4,12.064-12.064,12.064s-12.064-5.4-12.064-12.064V865.598
			l-51.788-51.788v86.453c0,6.664-5.4,12.064-12.064,12.064c-6.664,0-12.064-5.4-12.064-12.064V789.682l-93.647-93.647
			c6.458-4.846,12.397-10.34,17.754-16.365L781.687,771.669z M690.188,524.927c-5.317-6.059-11.225-11.584-17.651-16.469
			l101.086-101.086V296.791c0-6.664,5.4-12.064,12.064-12.064c6.664,0,12.064,5.4,12.064,12.064v86.453l51.788-51.788V220.875
			c0-6.664,5.4-12.064,12.064-12.064s12.064,5.4,12.064,12.064v86.453l62.988-62.988c4.713-4.713,12.347-4.713,17.06,0
			c4.713,4.709,4.713,12.351,0,17.06l-60.62,60.62h81.717c6.664,0,12.064,5.4,12.064,12.064c0,6.664-5.4,12.064-12.064,12.064
			H868.968l-55.295,55.295h88.73c6.664,0,12.064,5.4,12.064,12.064c0,6.664-5.4,12.064-12.064,12.064H791.567
			c-0.629,0-1.234-0.092-1.838-0.185L690.188,524.927z M981.666,675.504c4.713,4.709,4.713,12.347,0,17.06
			c-2.356,2.356-5.443,3.534-8.53,3.534c-3.087,0-6.174-1.178-8.53-3.534l-78.378-78.375c-0.446-0.445-0.807-0.938-1.168-1.429
			H721.813c-0.849,0-1.676-0.091-2.475-0.258c0.425-4.11,0.649-8.28,0.649-12.503c0-3.755-0.195-7.463-0.532-11.13
			c0.763-0.151,1.55-0.238,2.358-0.238h164.599l78.194-78.19c4.713-4.713,12.347-4.713,17.06,0c4.713,4.713,4.713,12.351,0,17.06
			l-61.133,61.13h73.245l78.19-78.19c4.713-4.713,12.347-4.713,17.06,0c4.713,4.709,4.713,12.351,0,17.06l-61.13,61.13h89.08
			c6.664,0,12.064,5.4,12.064,12.064c0,6.664-5.4,12.064-12.064,12.064h-85.73l57.78,57.78c4.713,4.709,4.713,12.351,0,17.06
			c-2.356,2.356-5.443,3.534-8.53,3.534s-6.173-1.178-8.53-3.534l-74.84-74.84h-78.209L981.666,675.504z"/>
		<path fill="#99D6E0" d="M99.266,396.189c15.35,0,28.362-9.886,33.101-23.626c-4.738-13.741-17.75-23.627-33.101-23.627
			c-15.35,0-28.362,9.886-33.1,23.627C70.905,386.303,83.917,396.189,99.266,396.189z"/>
		<path fill="#99D6E0" d="M1106.719,396.189c15.35,0,28.362-9.886,33.101-23.626c-4.738-13.741-17.75-23.627-33.101-23.627
			c-15.35,0-28.362,9.886-33.1,23.627C1078.358,386.303,1091.369,396.189,1106.719,396.189z"/>
		<path fill="#99D6E0" d="M99.266,781.663c-15.35,0-28.362,9.887-33.1,23.628c4.739,13.74,17.751,23.626,33.1,23.626
			c15.35,0,28.362-9.886,33.101-23.626C127.629,791.55,114.618,781.663,99.266,781.663z"/>
		<path fill="#99D6E0" d="M421.929,1077.061c-4.738-13.741-17.75-23.626-33.1-23.626s-28.362,9.886-33.1,23.626
			c4.738,13.741,17.75,23.627,33.1,23.627S417.191,1090.802,421.929,1077.061z"/>
		<path fill="#99D6E0" d="M816.267,1053.435c-15.35,0-28.362,9.887-33.1,23.627c4.739,13.741,17.751,23.627,33.1,23.627
			c15.35,0,28.362-9.886,33.1-23.627C844.629,1063.321,831.618,1053.435,816.267,1053.435z"/>
		<path fill="#99D6E0" d="M388.829,123.738c15.35,0,28.362-9.887,33.1-23.627c-4.738-13.74-17.75-23.626-33.1-23.626
			s-28.362,9.886-33.1,23.626C360.467,113.851,373.479,123.738,388.829,123.738z"/>
		<path fill="#99D6E0" d="M816.267,123.738c15.35,0,28.362-9.886,33.1-23.626c-4.738-13.741-17.75-23.627-33.1-23.627
			c-15.35,0-28.362,9.886-33.1,23.627C787.906,113.852,800.918,123.738,816.267,123.738z"/>
		<path fill="#99D6E0" d="M1106.719,781.663c-15.35,0-28.362,9.887-33.1,23.628c4.739,13.74,17.751,23.626,33.1,23.626
			c15.35,0,28.362-9.886,33.101-23.626C1135.082,791.55,1122.07,781.663,1106.719,781.663z"/>
	</g>
	<g>
		<path fill="#86C0CE" d="M357.472,126.67c2.698,5.348,6.516,10.057,10.649,13.088c11.953,8.768,29.625,8.734,41.543-0.081
			c11.918-8.814,17.127-25.701,12.245-39.698c-4.627,13.721-18.553,23.739-33.032,23.766c-15.657,0.028-25.424-10.123-33.115-22.241
			C351.861,108.942,353.373,118.544,357.472,126.67z"/>
		<path fill="#86C0CE" d="M600.002,629.689c-41.252,0-76.22-26.569-88.954-63.495c-3.319,9.625-5.209,19.915-5.209,30.668
			c0,52.006,42.158,94.164,94.164,94.164c52.005,0,94.164-42.158,94.164-94.164c0-10.753-1.891-21.042-5.209-30.668
			C676.222,603.12,641.254,629.689,600.002,629.689z"/>
		<path fill="#86C0CE" d="M790.257,134.77c1.655,1.942,3.446,3.64,5.301,5.001c11.956,8.771,29.635,8.737,41.557-0.081
			c11.922-8.818,17.131-25.712,12.244-39.712c-4.631,13.721-18.558,23.738-33.039,23.765c-15.654,0.029-25.434-10.118-33.123-22.239
			C777.881,111.645,782.617,125.806,790.257,134.77z"/>
		<path fill="#86C0CE" d="M73.259,407.219c1.654,1.94,3.444,3.637,5.296,4.996c11.955,8.77,29.631,8.736,41.553-0.08
			c11.921-8.816,17.132-25.706,12.249-39.706c-4.631,13.721-18.557,23.739-33.038,23.766c-15.66,0.029-25.427-10.123-33.124-22.241
			C60.868,384.087,65.617,398.256,73.259,407.219z"/>
		<path fill="#86C0CE" d="M1080.711,407.219c1.654,1.94,3.444,3.637,5.296,4.996c11.955,8.77,29.631,8.736,41.553-0.08
			c11.921-8.816,17.132-25.706,12.25-39.706c-4.631,13.721-18.557,23.739-33.038,23.766c-15.661,0.029-25.427-10.123-33.124-22.241
			C1068.32,384.087,1073.069,398.256,1080.711,407.219z"/>
		<path fill="#86C0CE" d="M1141.372,811.884c-0.283-2.285-0.799-4.542-1.562-6.727c-4.631,13.721-18.557,23.738-33.039,23.765
			c-15.659,0.029-25.429-10.122-33.124-22.24c-6.477,12.329,1.951,30.624,12.361,38.26c11.955,8.77,29.631,8.735,41.552-0.08
			C1137.62,837.423,1142.902,824.234,1141.372,811.884z"/>
		<path fill="#86C0CE" d="M133.919,811.884c-0.283-2.285-0.799-4.542-1.562-6.728c-4.631,13.721-18.557,23.738-33.038,23.765
			c-15.66,0.029-25.428-10.122-33.124-22.24c-6.478,12.329,1.951,30.625,12.361,38.261c11.955,8.77,29.631,8.736,41.552-0.08
			C130.168,837.423,135.449,824.234,133.919,811.884z"/>
		<path fill="#86C0CE" d="M423.475,1083.635c-0.283-2.279-0.799-4.53-1.559-6.711c-4.627,13.722-18.553,23.743-33.035,23.771
			c-15.666,0.03-25.423-10.128-33.125-22.244c-6.485,12.322,1.956,30.625,12.362,38.257c11.955,8.768,29.629,8.733,41.549-0.082
			C419.731,1109.185,425.012,1095.988,423.475,1083.635z"/>
		<path fill="#86C0CE" d="M850.92,1083.656c-0.284-2.285-0.801-4.541-1.563-6.726c-4.631,13.72-18.557,23.738-33.038,23.765
			c-15.662,0.029-25.425-10.125-33.124-22.242c-6.487,12.327,1.945,30.634,12.355,38.272c11.957,8.773,29.638,8.74,41.561-0.079
			C847.173,1109.204,852.454,1096.009,850.92,1083.656z"/>
		<path fill="#86C0CE" d="M526.805,235.421c-4.713-4.713-12.347-4.713-17.06,0c-4.713,4.709-4.713,12.351,0,17.06l78.19,78.19
			v149.946c3.968-0.396,7.993-0.604,12.066-0.604c4.072,0,8.095,0.208,12.062,0.604V332.02c0.491-0.36,0.982-0.721,1.426-1.165
			l78.378-78.375c4.713-4.709,4.713-12.347,0-17.06c-4.713-4.713-12.347-4.713-17.06,0l-62.744,62.741V219.96l74.84-74.84
			c4.713-4.709,4.713-12.351,0-17.06c-4.713-4.713-12.347-4.713-17.06,0l-57.78,57.78v-85.73c0-6.664-5.4-12.064-12.064-12.064
			s-12.064,5.4-12.064,12.064v89.08l-61.13-61.13c-4.713-4.713-12.347-4.713-17.06,0c-4.713,4.709-4.713,12.351,0,17.06l78.19,78.19
			v73.242L526.805,235.421z"/>
		<path fill="#86C0CE" d="M1071.967,687.599c2.356,2.356,5.443,3.534,8.53,3.534s6.174-1.178,8.53-3.534
			c4.713-4.709,4.713-12.351,0-17.06l-57.78-57.78h85.73c6.664,0,12.064-5.4,12.064-12.064c0-6.664-5.4-12.064-12.064-12.064h-89.08
			l61.13-61.13c4.713-4.709,4.713-12.351,0-17.06c-4.713-4.713-12.347-4.713-17.06,0l-78.19,78.19h-73.245l61.133-61.13
			c4.713-4.709,4.713-12.347,0-17.06c-4.713-4.713-12.347-4.713-17.06,0l-78.194,78.19H721.813c-0.808,0-1.595,0.086-2.358,0.238
			c0.337,3.667,0.532,7.375,0.532,11.13c0,4.223-0.224,8.393-0.649,12.503c0.799,0.167,1.626,0.258,2.475,0.258h163.247
			c0.361,0.492,0.723,0.985,1.168,1.429l78.378,78.375c2.356,2.356,5.443,3.534,8.53,3.534c3.087,0,6.173-1.178,8.53-3.534
			c4.713-4.713,4.713-12.351,0-17.06l-62.747-62.744h78.209L1071.967,687.599z"/>
		<path fill="#86C0CE" d="M220.29,675.504c-4.713,4.709-4.713,12.351,0,17.06c2.356,2.356,5.443,3.534,8.53,3.534
			c3.087,0,6.174-1.178,8.53-3.534l78.375-78.375c0.445-0.445,0.807-0.938,1.168-1.429h163.25c0.189,0,0.363-0.047,0.549-0.055
			c-0.44-4.177-0.675-8.413-0.675-12.706c0-3.822,0.199-7.595,0.548-11.326c-0.142-0.005-0.277-0.042-0.421-0.042H315.539
			l-78.19-78.19c-4.713-4.713-12.347-4.713-17.06,0c-4.713,4.709-4.713,12.351,0,17.06l61.13,61.13h-73.242l-78.19-78.19
			c-4.713-4.713-12.347-4.713-17.06,0c-4.713,4.709-4.713,12.351,0,17.06l61.13,61.13h-89.08c-6.664,0-12.064,5.4-12.064,12.064
			c0,6.664,5.4,12.064,12.064,12.064h85.73l-57.78,57.78c-4.713,4.709-4.713,12.351,0,17.06c2.356,2.356,5.443,3.534,8.53,3.534
			s6.174-1.178,8.53-3.534l74.84-74.84h78.206L220.29,675.504z"/>
		<path fill="#86C0CE" d="M690.188,524.927l99.541-99.541c0.604,0.093,1.209,0.185,1.838,0.185h110.836
			c6.664,0,12.064-5.4,12.064-12.064c0-6.664-5.4-12.064-12.064-12.064h-88.73l55.295-55.295h105.845
			c6.664,0,12.064-5.4,12.064-12.064c0-6.664-5.4-12.064-12.064-12.064h-81.717l60.62-60.62c4.713-4.709,4.713-12.351,0-17.06
			c-4.713-4.713-12.347-4.713-17.06,0l-62.988,62.988v-86.453c0-6.664-5.4-12.064-12.064-12.064s-12.064,5.4-12.064,12.064v110.581
			l-51.788,51.788v-86.453c0-6.664-5.4-12.064-12.064-12.064c-6.664,0-12.064,5.4-12.064,12.064v110.581L672.538,508.458
			C678.964,513.344,684.871,518.868,690.188,524.927z"/>
		<path fill="#86C0CE" d="M214.175,342.126H320.02l55.295,55.295h-88.734c-6.664,0-12.064,5.4-12.064,12.064
			c0,6.664,5.4,12.064,12.064,12.064h110.84c0.629,0,1.234-0.092,1.838-0.185L504.844,526.95
			c4.919-6.398,10.469-12.278,16.556-17.563L415.364,403.351V292.77c0-6.664-5.4-12.064-12.064-12.064s-12.064,5.4-12.064,12.064
			v86.453l-51.788-51.788V216.854c0-6.664-5.4-12.064-12.064-12.064s-12.064,5.4-12.064,12.064v86.453l-62.988-62.988
			c-4.713-4.713-12.347-4.713-17.06,0c-4.713,4.709-4.713,12.351,0,17.06l60.62,60.62h-81.717c-6.664,0-12.064,5.4-12.064,12.064
			C202.111,336.727,207.511,342.126,214.175,342.126z"/>
		<path fill="#86C0CE" d="M966.77,850.907H860.925l-55.295-55.294h88.73c6.664,0,12.064-5.4,12.064-12.064
			c0-6.664-5.4-12.064-12.064-12.064H783.524c-0.629,0-1.234,0.092-1.838,0.185l-91.999-91.999
			c-5.357,6.025-11.296,11.52-17.754,16.365l93.647,93.647v110.581c0,6.664,5.4,12.064,12.064,12.064
			c6.664,0,12.064-5.4,12.064-12.064v-86.453l51.788,51.788V976.18c0,6.664,5.4,12.064,12.064,12.064s12.064-5.4,12.064-12.064
			v-86.453l62.988,62.988c2.356,2.356,5.443,3.534,8.53,3.534c3.087,0,6.174-1.178,8.53-3.534c4.713-4.709,4.713-12.351,0-17.06
			l-60.62-60.62h81.717c6.664,0,12.064-5.4,12.064-12.064C978.834,856.307,973.435,850.907,966.77,850.907z"/>
		<path fill="#86C0CE" d="M395.257,900.263c0,6.664,5.4,12.064,12.064,12.064s12.064-5.4,12.064-12.064V789.682l100.437-100.438
			c-5.996-5.391-11.447-11.373-16.258-17.861L403.28,771.669c-0.604-0.093-1.209-0.185-1.838-0.185h-110.84
			c-6.664,0-12.064,5.4-12.064,12.064c0,6.664,5.4,12.064,12.064,12.064h88.734l-55.295,55.294H218.197
			c-6.664,0-12.064,5.4-12.064,12.064c0,6.664,5.4,12.064,12.064,12.064h81.717l-60.62,60.62c-4.713,4.709-4.713,12.351,0,17.06
			c2.356,2.356,5.443,3.534,8.53,3.534c3.087,0,6.174-1.178,8.53-3.534l62.988-62.988v86.453c0,6.664,5.4,12.064,12.064,12.064
			s12.064-5.4,12.064-12.064V865.598l51.788-51.788V900.263z"/>
		<path fill="#86C0CE" d="M674.004,966.963c2.356,2.356,5.443,3.534,8.53,3.534s6.174-1.178,8.53-3.534
			c4.713-4.709,4.713-12.351,0-17.06l-78.19-78.19V719.288c-4.23,0.452-8.522,0.696-12.871,0.696c-3.799,0-7.549-0.197-11.257-0.542
			v150.919c-0.492,0.361-0.985,0.723-1.43,1.168l-78.375,78.375c-4.713,4.709-4.713,12.351,0,17.06
			c2.356,2.356,5.443,3.534,8.53,3.534c3.087,0,6.174-1.178,8.53-3.534l62.744-62.744v78.21l-74.844,74.84
			c-4.713,4.709-4.713,12.347,0,17.06c2.356,2.356,5.443,3.534,8.53,3.534c3.087,0,6.174-1.178,8.53-3.534l57.784-57.781v85.727
			c0,6.664,5.4,12.064,12.064,12.064c6.664,0,12.064-5.4,12.064-12.064v-89.076l61.13,61.13c2.356,2.356,5.443,3.534,8.53,3.534
			s6.174-1.178,8.53-3.534c4.713-4.709,4.713-12.351,0-17.06l-78.19-78.19v-73.246L674.004,966.963z"/>
	</g>
</g>
</svg>
